<?xml version="1.0" encoding="utf-8"?>
<!-- Generator: Adobe Illustrator 27.5.0, SVG Export Plug-In . SVG Version: 6.00 Build 0)  -->
<svg version="1.1" xmlns="http://www.w3.org/2000/svg" xmlns:xlink="http://www.w3.org/1999/xlink" x="0px" y="0px"
	 viewBox="0 0 500 500" style="enable-background:new 0 0 500 500;" xml:space="preserve">
<g id="BACKGROUND">
	<rect y="0" style="fill:#FFFFFF;" width="500" height="500"/>
</g>
<g id="OBJECTS">
	<g>
		<path style="fill:#FFC253;" d="M309.192,147.252l-1.402,4.092l-1.367-4.104c-1.759-5.284-5.442-9.713-10.317-12.406l0,0l0,0
			c4.898-2.651,8.618-7.048,10.423-12.317l1.402-4.092l1.366,4.104c1.759,5.284,5.442,9.713,10.317,12.406l0,0l0,0
			C314.718,137.587,310.997,141.984,309.192,147.252z"/>
		<path style="fill:#FFC253;" d="M346.867,118.072l-1.094,3.193l-1.066-3.202c-1.373-4.122-4.246-7.578-8.05-9.679l0,0l0,0
			c3.821-2.068,6.725-5.499,8.133-9.609l1.094-3.193l1.066,3.202c1.373,4.123,4.246,7.578,8.049,9.679l0,0l0,0
			C351.179,110.532,348.276,113.962,346.867,118.072z"/>
		<path style="fill:#FFC253;" d="M138.965,283.474l-1.504,3.307l-1.476-3.32c-1.9-4.273-5.869-7.858-11.12-10.041l0,0l0,0
			c5.269-2.137,9.27-5.688,11.207-9.945l1.504-3.306l1.476,3.319c1.9,4.274,5.87,7.858,11.12,10.041l0,0l0,0
			C144.902,275.667,140.902,279.217,138.965,283.474z"/>
	</g>
	<g>
		<path style="fill:#FACC07;" d="M236.545,140.072c-41.585,3.759-74.4,38.525-75.81,80.256
			c-1.047,30.994,14.702,58.213,38.715,73.49c9.144,5.818,15.414,15.226,17.924,25.769l5.698,23.927l23.684-0.497l23.685-0.497
			l4.733-24.369c2.091-10.766,8.295-20.271,17.251-26.602c21.895-15.478,35.967-41.195,35.362-70.021
			C326.778,173.422,285.305,135.665,236.545,140.072z"/>
		<path style="fill:#EA830C;" d="M247.627,227.758l-0.658-30.958l-15.073,0.321c-8.676,0.184-16.195-6.759-16.217-15.437
			c-0.021-8.416,6.703-15.332,15.153-15.512l15.479-0.329l-0.658-30.958l-11.083,0.236c-42.648,4.614-76.101,40.509-77.554,83.521
			c-0.126,3.737-0.008,7.418,0.32,11.036l28.378-0.604l0.321,15.073c0.185,8.676,7.441,15.893,16.112,15.546
			c8.409-0.336,15.034-7.349,14.854-15.799l-0.329-15.479L247.627,227.758z"/>
		<g>
			<path style="fill:#EA830C;" d="M239.252,352.815c-0.093,0.002-0.187-0.001-0.281-0.011c-1.32-0.125-2.291-1.297-2.165-2.618
				c3.109-32.821,0.921-61.774-3.513-78.861c-0.576-0.028-1.16-0.06-1.748-0.095c-10.165-0.301-13.931-4.564-15.265-7.075
				c-1.52-2.866-1.405-6.188,0.308-8.889c1.818-2.869,5.106-4.468,8.774-4.303c1.96,0.095,3.818,1.138,5.522,3.102
				c2.186,2.522,4.225,6.818,5.986,12.583c6.456,0.153,11.751-0.181,16.07-0.823c2.386-5.791,5.527-10.632,9.005-13.372
				c3.336-2.63,6.174-2.612,7.966-2.148c3.722,0.98,5.843,4.01,5.278,7.54c-0.771,4.823-6.315,9.898-18.707,12.272
				c-2.109,5.883-3.481,12.803-3.34,19.524c-0.61,21.332,1.246,59.996,1.265,60.385c0.064,1.325-0.958,2.451-2.284,2.517
				c-1.3,0.086-2.452-0.958-2.516-2.285c-0.019-0.389-1.885-39.241-1.269-60.637c-0.131-6.128,0.918-12.704,2.773-18.702
				c-3.79,0.424-8.084,0.632-12.915,0.559c4.434,17.986,6.484,46.54,3.393,79.159C241.473,351.867,240.454,352.789,239.252,352.815z
				 M224.677,255.758c-1.753,0.037-3.206,0.781-4.031,2.082c-0.787,1.242-0.831,2.721-0.12,4.063
				c1.437,2.706,5.532,4.357,11.235,4.526c0.033,0.002,0.064,0.004,0.096,0.008c-1.398-4.188-2.957-7.324-4.603-9.223
				c-0.787-0.906-1.54-1.42-2.119-1.448C224.979,255.757,224.827,255.755,224.677,255.758z M267.968,254.871
				c-0.906,0.019-1.927,0.472-3.049,1.357c-2.089,1.644-4.237,4.621-6.117,8.406c8.448-2.254,11.361-5.789,11.642-7.548
				c0.223-1.394-1.004-1.934-1.756-2.132C268.457,254.894,268.217,254.866,267.968,254.871z"/>
		</g>
		<polygon style="fill:#FF3E98;" points="259.553,382.303 235.619,382.805 230.124,371.258 264.559,370.536 		"/>
		<path style="fill:#CD2B7B;" d="M273.772,340.769l-54.102,1.134c-3.13,0.066-5.614,2.656-5.548,5.786l0.136,6.494
			c0.066,3.13,2.656,5.614,5.786,5.549l0.364-0.008c-1.547,1.642-2.482,3.864-2.43,6.298c0.103,4.923,4.178,8.831,9.102,8.728
			l40.669-0.853c4.924-0.103,8.831-4.179,8.728-9.102c-0.051-2.434-1.077-4.615-2.692-6.19l0.363-0.008
			c3.13-0.066,5.614-2.656,5.549-5.786l-0.136-6.494C279.493,343.188,276.902,340.703,273.772,340.769z"/>
		<path style="fill:#AE115D;" d="M273.772,340.769l-26.478,0.555l0.913,32.983l19.541-0.41c4.924-0.103,8.831-4.179,8.728-9.102
			c-0.051-2.434-1.077-4.615-2.692-6.19l0.363-0.007c3.13-0.066,5.614-2.656,5.549-5.786l-0.136-6.494
			C279.493,343.188,276.902,340.704,273.772,340.769z"/>
		<g>
			<g>
				<path style="fill:#EA830C;" d="M283.446,187.805h-0.002c-14.83,0-26.854,12.022-26.854,26.854
					c0,14.832,12.024,26.855,26.854,26.855c4.607,0,8.941-1.161,12.729-3.204l-12.727-23.65V187.805z"/>
				<path style="fill:#EA830C;" d="M313.002,212.434c0-14.831-12.023-26.854-26.853-26.854v26.855l0.043,0.083l26.767,1.381
					C312.985,213.413,313.002,212.926,313.002,212.434z"/>
				<path style="fill:#EA830C;" d="M286.192,214.744l12.684,23.566c8.005-4.318,13.565-12.581,14.082-22.186L286.192,214.744z"/>
			</g>
		</g>
	</g>
	<g>
		<path style="fill:#6FB1FE;" d="M370.01,317.598c-0.702-2.806-1.807-5.449-3.26-7.862c5.344-5.852,8.477-9.713,8.077-10.113
			l-7.906-7.906c-0.402-0.404-4.262,2.735-10.115,8.074c-2.413-1.448-5.056-2.556-7.86-3.257c-0.363-7.912-0.873-12.86-1.443-12.86
			h-11.178c-0.568,0-1.082,4.948-1.443,12.86c-2.804,0.7-5.445,1.809-7.86,3.257c-5.852-5.339-9.713-8.478-10.117-8.074
			l-7.903,7.906c-0.402,0.4,2.734,4.262,8.077,10.113c-1.453,2.413-2.559,5.056-3.26,7.862c-7.914,0.359-12.86,0.874-12.86,1.443
			v11.178c0,0.567,4.946,1.079,12.86,1.441c0.7,2.804,1.807,5.448,3.26,7.86c-5.343,5.854-8.479,9.715-8.077,10.117l7.903,7.905
			c0.403,0.402,4.265-2.735,10.117-8.074c2.415,1.449,5.056,2.556,7.86,3.255c0.361,7.915,0.875,12.863,1.443,12.863h11.178
			c0.57,0,1.08-4.948,1.443-12.863c2.804-0.699,5.447-1.806,7.86-3.255c5.854,5.339,9.713,8.476,10.115,8.074l7.906-7.905
			c0.4-0.402-2.734-4.263-8.077-10.117c1.453-2.412,2.558-5.056,3.26-7.86c7.911-0.363,12.86-0.875,12.86-1.441V319.04
			C382.87,318.472,377.92,317.957,370.01,317.598z"/>
		<path style="fill:#4A80E8;" d="M360.54,324.629c0,10.286-8.339,18.626-18.627,18.626c-10.286,0-18.626-8.339-18.626-18.626
			c0-10.285,8.339-18.624,18.626-18.624C352.201,306.005,360.54,314.344,360.54,324.629z"/>
		<path style="fill:#3547C7;" d="M354.9,324.629c0,7.173-5.814,12.986-12.987,12.986c-7.171,0-12.984-5.813-12.984-12.986
			c0-7.171,5.813-12.985,12.984-12.985C349.085,311.643,354.9,317.458,354.9,324.629z"/>
	</g>
	<g>
		<path style="fill:#6FB1FE;" d="M392.737,258.032c-0.422-1.689-1.088-3.279-1.962-4.732c3.216-3.522,5.102-5.846,4.861-6.087
			l-4.758-4.758c-0.242-0.243-2.565,1.646-6.088,4.859c-1.453-0.871-3.043-1.539-4.731-1.96c-0.218-4.762-0.526-7.74-0.869-7.74
			h-6.728c-0.342,0-0.651,2.978-0.868,7.74c-1.688,0.422-3.277,1.089-4.731,1.96c-3.522-3.213-5.846-5.102-6.089-4.859l-4.757,4.758
			c-0.242,0.241,1.645,2.565,4.861,6.087c-0.874,1.453-1.54,3.043-1.962,4.732c-4.763,0.216-7.74,0.526-7.74,0.868v6.728
			c0,0.341,2.977,0.649,7.74,0.868c0.422,1.688,1.088,3.279,1.962,4.731c-3.216,3.523-5.103,5.847-4.861,6.089l4.757,4.758
			c0.243,0.242,2.567-1.646,6.089-4.859c1.453,0.872,3.043,1.538,4.731,1.959c0.217,4.764,0.526,7.742,0.868,7.742h6.728
			c0.343,0,0.65-2.978,0.869-7.742c1.688-0.421,3.278-1.087,4.731-1.959c3.523,3.213,5.846,5.101,6.088,4.859l4.758-4.758
			c0.241-0.242-1.645-2.566-4.861-6.089c0.874-1.452,1.54-3.043,1.962-4.731c4.761-0.218,7.74-0.526,7.74-0.868v-6.728
			C400.477,258.558,397.498,258.248,392.737,258.032z"/>
		<path style="fill:#4A80E8;" d="M387.037,262.264c0,6.191-5.019,11.21-11.211,11.21c-6.191,0-11.21-5.019-11.21-11.21
			c0-6.19,5.019-11.209,11.21-11.209C382.018,251.055,387.037,256.074,387.037,262.264z"/>
		<path style="fill:#3547C7;" d="M383.643,262.264c0,4.317-3.499,7.816-7.816,7.816c-4.316,0-7.815-3.499-7.815-7.816
			c0-4.316,3.499-7.815,7.815-7.815C380.143,254.448,383.643,257.948,383.643,262.264z"/>
	</g>
	<g>
		<path style="fill:#6FB1FE;" d="M177.596,333.382c-0.422-1.689-1.088-3.279-1.962-4.732c3.216-3.522,5.102-5.846,4.861-6.087
			l-4.758-4.758c-0.242-0.243-2.565,1.646-6.088,4.859c-1.453-0.871-3.043-1.539-4.731-1.96c-0.218-4.762-0.525-7.74-0.868-7.74
			h-6.728c-0.342,0-0.651,2.978-0.868,7.74c-1.688,0.421-3.277,1.089-4.731,1.96c-3.522-3.213-5.846-5.102-6.089-4.859l-4.757,4.758
			c-0.242,0.241,1.645,2.565,4.861,6.087c-0.874,1.453-1.54,3.043-1.962,4.732c-4.763,0.216-7.74,0.526-7.74,0.868v6.728
			c0,0.341,2.977,0.649,7.74,0.868c0.421,1.688,1.088,3.279,1.962,4.731c-3.216,3.523-5.103,5.847-4.861,6.089l4.757,4.758
			c0.243,0.242,2.567-1.646,6.089-4.859c1.454,0.872,3.043,1.538,4.731,1.959c0.217,4.764,0.526,7.742,0.868,7.742h6.728
			c0.343,0,0.65-2.978,0.868-7.742c1.688-0.421,3.278-1.087,4.731-1.959c3.523,3.213,5.846,5.101,6.088,4.859l4.758-4.758
			c0.241-0.242-1.645-2.566-4.861-6.089c0.874-1.452,1.54-3.043,1.962-4.731c4.761-0.218,7.74-0.526,7.74-0.868v-6.728
			C185.335,333.908,182.357,333.598,177.596,333.382z"/>
		<path style="fill:#4A80E8;" d="M171.896,337.614c0,6.191-5.019,11.21-11.211,11.21c-6.191,0-11.21-5.019-11.21-11.21
			c0-6.19,5.019-11.209,11.21-11.209C166.877,326.404,171.896,331.424,171.896,337.614z"/>
		<path style="fill:#3547C7;" d="M168.501,337.614c0,4.317-3.5,7.816-7.817,7.816c-4.316,0-7.815-3.499-7.815-7.816
			c0-4.316,3.499-7.816,7.815-7.816C165.002,329.798,168.501,333.298,168.501,337.614z"/>
	</g>
	<text transform="matrix(1 0 0 1 113.6836 72.9856)" style="fill:#131D42; font-family:'Voltaire'; font-size:28px;">INNOVATION CONCEPT</text>
	<g>
		<defs>
			<rect id="SVGID_1_" y="0" width="500" height="500"/>
		</defs>
		<clipPath id="SVGID_00000114784818329670058660000000025771186540007070_">
			<use xlink:href="#SVGID_1_"  style="overflow:visible;"/>
		</clipPath>
		<g style="clip-path:url(#SVGID_00000114784818329670058660000000025771186540007070_);">
			<g>
				<g>
					<path style="fill:#6FB1FE;" d="M71.203,354.014c0,0,18.748,16.715,21.621,26.707c2.873,9.992,6.031,41.141,6.031,41.141
						l46.68,18.323v12.46h-71.13v-56.068L71.203,354.014z"/>
					<g>
						<g>
							<g>
								<g>
									<g>
										<g>
											<g>
												<g>
													<path style="fill:#EA830C;" d="M146.514,616.343c1.173,8.047,5.409,22.838,6.303,25.931l0.601,1.51l1.964,4.955
														l8.663-3.372l-0.455-6.039l-0.205-2.668l2.462,1.671l5.922,4.016l44.488-17.326l-2.55-6.479
														c-0.162-0.293-0.367-0.601-0.587-0.894c-0.601-0.733-1.436-1.363-2.594-1.466c-4.677-0.454-21.431-1.026-26.619-2.931
														c-4.017-1.481-8.781-6.142-10.716-8.15L146.514,616.343z"/>
												</g>
											</g>
										</g>
									</g>
								</g>
							</g>
							<g>
								<path style="fill:#E05D00;" d="M174.627,616.373c-0.013,0.091-0.025,0.182-0.035,0.273c-0.074,0.683,0.078,1.63,0.919,1.696
									c0.429,0.034,0.828-0.181,1.185-0.412c1.23-0.797,2.224-1.888,3.125-3.056c0.968-1.256,1.995-2.607,2.303-4.247
									c0.319-1.695-1.357-2.51-2.681-1.628C177.155,610.523,175.047,613.477,174.627,616.373z"/>
								<path style="fill:#E05D00;" d="M180.57,618.06c-0.013,0.091-0.025,0.182-0.035,0.273c-0.074,0.683,0.078,1.63,0.919,1.696
									c0.429,0.033,0.828-0.181,1.185-0.413c1.23-0.798,2.224-1.888,3.125-3.056c0.968-1.256,1.995-2.608,2.303-4.247
									c0.319-1.696-1.357-2.51-2.681-1.629C183.098,612.209,180.99,615.164,180.57,618.06z"/>
								<path style="fill:#E05D00;" d="M187.108,618.151c-0.013,0.091-0.025,0.182-0.035,0.273
									c-0.074,0.683,0.078,1.629,0.919,1.696c0.429,0.034,0.828-0.181,1.185-0.413c1.23-0.797,2.225-1.887,3.125-3.056
									c0.968-1.256,1.995-2.607,2.303-4.247c0.319-1.695-1.357-2.51-2.681-1.629C189.636,612.3,187.529,615.255,187.108,618.151z"
									/>
							</g>
							<path style="fill:#E05D00;" d="M213.121,617.648l-47.273,20.683l5.922,4.016l44.488-17.326l-2.55-6.479
								C213.546,618.249,213.342,617.941,213.121,617.648z"/>
							<polygon style="fill:#AE115D;" points="153.419,643.783 155.383,648.738 164.046,645.366 163.591,639.327 							"/>
						</g>
						<path style="fill:#AE115D;" d="M68.387,474.492c0,0,55.653,12.196,62.323,15.769c6.67,3.573,47.66,112.753,47.66,112.753
							l-39.308,19.056L93.297,511.235l-64.675,3.77l-9.281-36.253L68.387,474.492z"/>
					</g>
					<g>
						<g>
							<rect x="148.597" y="467.626" style="fill:#131D42;" width="14.135" height="181.372"/>
							<path style="fill:#131D42;" d="M110.877,656.723h89.575l0,0c0-7.548-6.119-13.667-13.667-13.667h-62.243
								C116.995,643.056,110.877,649.175,110.877,656.723L110.877,656.723z"/>
						</g>
						
							<rect x="93.297" y="464.304" transform="matrix(-1 -1.224647e-16 1.224647e-16 -1 396.6615 940.9384)" style="fill:#FACC07;" width="210.067" height="12.33"/>
					</g>
					<g>
						<g>
							<polygon style="fill:#131D42;" points="-4.052,534.627 -26.064,426.645 -15.62,426.645 8.725,536.467 							"/>
							<path style="fill:#131A70;" d="M-33.794,408.699c4.342-4.566,35.221-4.506,64.64-3.335v25.396H-37.66
								C-37.66,430.759-42.368,417.714-33.794,408.699z"/>
						</g>
					</g>
					<g>
						<g>
							<polygon style="fill:#131D42;" points="93.297,543.041 113.198,656.723 106.252,656.723 78.41,548.347 							"/>
							<polygon style="fill:#131D42;" points="-6.163,543.041 -26.064,656.723 -19.117,656.723 8.725,548.347 							"/>
						</g>
						
							<rect x="-15.62" y="619.695" transform="matrix(-1 -1.224647e-16 1.224647e-16 -1 86.3781 1246.6144)" style="fill:#131D42;" width="117.618" height="7.224"/>
					</g>
					<path style="fill:#131A70;" d="M110.118,531.318c0,0-112.01-9.015-120.583,0c-8.573,9.015-3.866,22.06-3.866,22.06h127.528
						L110.118,531.318z"/>
					<g>
						<g>
							<g>
								<g>
									<g>
										<g>
											<g>
												<path style="fill:#FACC07;" d="M128.048,632.164c1.173,8.048,5.409,22.838,6.303,25.931l0.601,1.51l1.964,4.955
													l8.663-3.371l-0.455-6.039l-0.205-2.668l2.462,1.671l5.922,4.017l44.488-17.326l-2.55-6.479
													c-0.162-0.293-0.367-0.601-0.587-0.894c-0.601-0.733-1.436-1.363-2.594-1.466c-4.677-0.454-21.431-1.026-26.62-2.932
													c-4.017-1.481-8.781-6.142-10.715-8.15L128.048,632.164z"/>
											</g>
										</g>
									</g>
								</g>
							</g>
							<g>
								<path style="fill:#E05D00;" d="M156.16,632.194c-0.013,0.091-0.025,0.182-0.035,0.273c-0.074,0.683,0.078,1.63,0.919,1.696
									c0.43,0.034,0.828-0.181,1.185-0.413c1.23-0.797,2.225-1.887,3.125-3.056c0.968-1.256,1.995-2.607,2.303-4.247
									c0.319-1.696-1.357-2.51-2.681-1.629C158.688,626.344,156.581,629.299,156.16,632.194z"/>
								<path style="fill:#E05D00;" d="M162.103,633.881c-0.013,0.091-0.025,0.182-0.035,0.273c-0.074,0.683,0.078,1.63,0.919,1.696
									c0.43,0.034,0.828-0.181,1.185-0.412c1.23-0.798,2.225-1.888,3.125-3.056c0.968-1.256,1.995-2.607,2.303-4.247
									c0.319-1.696-1.357-2.51-2.681-1.629C164.632,628.03,162.524,630.985,162.103,633.881z"/>
								<path style="fill:#E05D00;" d="M168.642,633.971c-0.013,0.091-0.025,0.182-0.035,0.273
									c-0.074,0.683,0.078,1.629,0.919,1.696c0.429,0.034,0.828-0.181,1.185-0.413c1.23-0.798,2.225-1.888,3.125-3.056
									c0.968-1.256,1.995-2.608,2.303-4.247c0.319-1.696-1.357-2.51-2.681-1.629C171.17,628.121,169.062,631.076,168.642,633.971z
									"/>
							</g>
							<path style="fill:#E05D00;" d="M194.655,633.469l-47.273,20.683l5.922,4.017l44.488-17.326l-2.55-6.479
								C195.08,634.07,194.875,633.762,194.655,633.469z"/>
							<polygon style="fill:#E05D00;" points="134.952,659.604 136.917,664.559 145.58,661.188 145.125,655.148 							"/>
						</g>
						<g>
							<path style="fill:#CD2B7B;" d="M162.92,618.649l-23.859,11.971l-16.368,6.84l-41.511-97.974c0,0-56.094,4.496-67.022-0.725
								c-10.928-5.22-24.625-46.479-24.625-46.479l41.117-10.063l17.208,15.965c0,0,42.698-0.168,50.143,3.182
								C109.604,506.586,162.92,618.649,162.92,618.649z"/>
							<path style="fill:#AE115D;" d="M139.061,630.62l-16.368,6.84l-41.511-97.974c0,0-56.094,4.496-67.022-0.725
								c-10.928-5.22-24.625-46.479-24.625-46.479H3.004c-3.341,11.984,1.787,25.499,11.102,33.851
								c9.675,8.677,23.063,12.32,36.056,12.355c12.993,0.035,25.754-3.237,38.201-6.949
								C104.106,557.213,123.319,604.959,139.061,630.62z"/>
						</g>
					</g>
					<g>
						<path style="fill:#6FB1FE;" d="M-8.731,500.044L-8.731,500.044c6.015-6.43,80.018-24.911,80.018-24.911l14.005,3.164v-5.777
							c0-2.516-0.856-5.006-2.591-6.827c-2.847-2.988-6.06-2.561-6.06-2.561l-0.152-8.638c0.662-6.057,5.313-54.007,4.691-75.808
							v-0.165c-0.22-7.41-2.677-14.585-6.995-20.601c-1.614-2.236-2.719-3.574-2.981-3.905c-0.028-0.014-0.028-0.027-0.041-0.055
							c0-0.014-0.014-0.014-0.014-0.014c-0.952-0.938-1.932-1.821-2.939-2.663c-12.101-10.197-27.279-13.647-27.279-13.647
							c-1.269-0.276-4.181,0.29-7.216,1.09c-3.779,0.996-14.734,10.161-14.747,10.167C7.573,365.21,0.86,375.926-6.26,406.503
							c-0.938,4.015-1.822,8.651-2.663,13.674c-3.056,18.292-4.815,36.762-5.383,55.282
							C-14.568,483.996-12.662,492.461-8.731,500.044z"/>
					</g>
					<g>
						<polygon style="fill:#131A70;" points="69.284,544.704 82.049,541.377 66.857,483.075 -4.709,482.927 -14.934,541.375 
							-2.183,542.272 6.279,496.142 56.657,496.247 						"/>
					</g>
					<path style="fill:#FFF5F2;" d="M58.724,344.782c0,0,7.931,3.468,10.794,7.638c0.615,0.896,0,19.054,0,19.054l-10.232-6.718
						l-9.438,9.467c0,0-19.732-21.013-20.984-24.041c-1.556-3.762,0.796-10.286,0.796-10.286s6.37-2.224,8.629-2.167l18.93,21.487
						L58.724,344.782z"/>
					<path style="fill:#CD2B7B;" d="M69.518,371.474c0,0-2.05,8.734-5.22,9.223c-3.17,0.489-14.45-6.474-14.45-6.474l9.438-9.467
						L69.518,371.474z"/>
					<path style="fill:#4A80E8;" d="M28.245,361.655c4.289,6.834,9.428,12.852,15.841,17.774c6.04,4.636,22.405,15.99,27.519,4.888
						c0.458-0.994,2.149-0.289,1.779,0.75c-3.481,9.783-14.406,6.078-21.508,2.722c-11.107-5.248-20.233-13.942-26.4-24.517
						C24.432,361.483,27.15,359.91,28.245,361.655z"/>
					<g>
						<g>
							<g>
								<polygon style="fill:#131D42;" points="221.814,464.304 133.984,464.304 148.652,404.15 236.481,404.15 								"/>
								<path style="fill:#FFF5F2;" d="M196.844,434.895c-3.076,0-5.57-2.493-5.57-5.57c0-1.302,0.465-2.484,1.213-3.432
									c-0.745-0.208-1.516-0.356-2.327-0.356c-4.799,0-8.689,3.891-8.689,8.689c0,4.799,3.89,8.689,8.689,8.689
									c4.699,0,8.503-3.738,8.66-8.399C198.203,434.752,197.542,434.895,196.844,434.895z"/>
							</g>
						</g>
						<rect x="118.75" y="455.83" style="fill:#131D42;" width="103.064" height="8.474"/>
					</g>
					<path style="fill:#6FB1FE;" d="M22.039,370.191c0,0,17.956,12.658,19.789,21.171c1.832,8.512,8.02,42.865,8.02,42.865
						s38.733-1.194,45.956,0c7.222,1.194,20.048,5.958,20.048,5.958v18.69c0,0-11.042,8.284-21.284,8.752
						c-10.242,0.468-55.65-4.355-63.723-9.852c-8.073-5.497-24.931-43.608-24.931-51.304S9.548,370.107,22.039,370.191z"/>
					<path style="fill:#4A80E8;" d="M7.667,404.661c1.666,18.235,6.77,36.174,15.367,52.378c2.349,4.428,5.036,8.624,9.866,10.494
						c4.237,1.642,9.178,1.325,13.668,1.313c9.23-0.024,18.374-0.946,27.519-2.134c0.717-0.093,0.869,1.104,0.17,1.26
						c-10.839,2.419-22.113,3.617-33.225,3.322c-7.246-0.193-13.115-1.804-17.549-7.928c-11.829-16.334-16.814-39.043-18.77-58.705
						C4.524,402.775,7.495,402.776,7.667,404.661z"/>
					<path style="fill:#D8684E;" d="M115.852,457.408l2.897-1.578h17.301l2-8.203c0,0-12.548-4.668-14.136-4.712
						c-1.588-0.044-8.062-1.021-8.062-1.021V457.408z"/>
					<polygon style="fill:#FFF5F2;" points="117.318,435.909 115.852,461.561 109.256,464.304 108.369,434.227 					"/>
					<path style="fill:#4A80E8;" d="M28.193,390.56c-0.536-0.895,0.682-1.796,1.422-1.096c9.667,9.154,16.486,25.297,18.428,38.755
						c10.717-2.937,22.824-3.627,34.122-1.708c1.671-16.077,1.765-31.864,0.547-48.003c-0.028-0.369,0.585-0.458,0.652-0.088
						c2.914,15.937,3.007,32.431,0.637,48.452c8.136,1.602,15.79,4.567,22.1,9.084c0.631,0.451,0.278,1.679-0.573,1.36
						c-11.3-4.222-21.514-8.31-33.772-8.89c-7.864-0.373-15.336,0.637-22.716,2.466c-0.17,1.292-1.194,2.474-1.682,3.645
						c-0.791,1.896-0.902,3.746-1.109,5.756c-0.075,0.725-0.903,1.482-1.639,0.94c-0.358-0.264-0.575-0.445-0.823-0.808
						c-0.12-0.176-0.093-0.515,0.084-0.652c0.059-0.046,0.109-0.069,0.164-0.107c-0.132-1.885,0.296-3.852,1.059-5.55
						c0.354-0.789,0.838-1.79,1.486-2.584c-3.086,0.842-6.162,1.807-9.248,2.883c-1.106,0.386-1.865-1.382-0.803-1.905
						c3.153-1.553,6.582-2.834,10.16-3.891c-1.996-6.823-3.959-13.509-7.091-19.972C36.436,402.124,31.887,396.721,28.193,390.56z"
						/>
					<g>
						<path style="fill:#D8684E;" d="M61.12,329.784l-0.99,13.514l-0.118,1.484l-1.602,14.444c0,0-20.119-20.602-20.119-21.489
							c0.047-0.266,0.236-2.459,0.447-5.25c0.401-5.472,0.966-13.203,0.966-13.203L61.12,329.784z"/>
						<path style="fill:#AC4732;" d="M61.12,329.784l-0.99,13.514c-1.437,0.598-3.133,0.288-4.665-0.133
							c-4.783-1.374-9.235-3.788-12.91-6.978c-1.201-1.041-2.591-2.304-3.817-3.7c0.401-5.472,0.966-13.203,0.966-13.203
							L61.12,329.784z"/>
					</g>
					<g>
						<g>
							<g>
								<path style="fill:#D8684E;" d="M36.259,328.765c0,0,0.608,1.546,3.122,3.594l0.005,0c0.513,0.421,1.11,0.863,1.797,1.316
									c2.624,1.724,26.902,10.971,30.559,10.331c3.656-0.641,6.604-13.415,6.74-14.751c0.848-8.199,3.067-33.52,3.067-33.52
									c-10.191-27.077-41.959-11.539-45.525-8.692C32.458,289.889,36.259,328.765,36.259,328.765z"/>
								<g>
									<path style="fill:#ED7864;" d="M69.063,319.055c0,0-5.583,1.022-6.93,0.284l0.94,3.512c0,0,7.517-1.998,8.384-2.652
										L69.063,319.055z"/>
									<path style="fill:#AC4732;" d="M66.888,304.526c-0.817,4.913-0.025,10.203,2.175,14.529
										c-1.772,1.888-3.736,3.313-6.09,3.818c2.888,0.666,6.219-0.247,8.36-2.591C68.802,315.687,67.008,309.981,66.888,304.526z"
										/>
								</g>
								<path style="fill:#FFFFFF;" d="M54.309,327.384c0,0,6.765-1.958,17.482,0.97c0,0-3.148,7.685-9.46,6.927
									C56.019,334.523,54.309,327.384,54.309,327.384z"/>
								<path style="fill:#ED7864;" d="M39.386,332.359c0.513,0.421,1.11,0.863,1.797,1.316
									c2.624,1.724,26.902,10.971,30.559,10.331c3.656-0.641,6.604-13.415,6.74-14.751c-2.062,5.642-4.335,13.42-6.948,13.281
									C67.598,342.329,42.345,333.764,39.386,332.359z"/>
							</g>
							<g>
								<path style="fill:#131A70;" d="M79.118,305.478c0,0-2.718-6.827-5.692-5.213c-2.974,1.613-1.972,2.137-1.972,2.137
									L79.118,305.478z"/>
								<path style="fill:#131A70;" d="M44.991,303.338c0,0,9.252-8.221,12.118-4.501c1.673,2.172,0.167,3.306,0.167,3.306
									L44.991,303.338z"/>
								<g>
									<path style="fill:#131D42;" d="M49.221,310.555c0.104,2.536,1.468,4.539,3.047,4.475c1.579-0.065,2.775-2.173,2.671-4.709
										c-0.104-2.536-1.468-4.539-3.047-4.474C50.313,305.911,49.118,308.019,49.221,310.555z"/>
									<path style="fill:#FFF0E7;" d="M46.386,308.103c0,0,1.07,1.536,2.841,2.17c1.771,0.634,3.573,0.126,3.573,0.126
										s-1.07-1.536-2.842-2.17C48.187,307.595,46.386,308.103,46.386,308.103z"/>
								</g>
								<g>
									<path style="fill:#131D42;" d="M76.326,311.169c0.078,1.911-0.823,3.5-2.014,3.549c-1.19,0.049-2.218-1.461-2.297-3.373
										c-0.078-1.911,0.823-3.5,2.014-3.549C75.22,307.748,76.248,309.258,76.326,311.169z"/>
									<path style="fill:#FFF0E7;" d="M78.107,309.415c0,0-0.715,1.052-1.934,1.604c-1.219,0.552-2.481,0.397-2.481,0.397
										s0.715-1.052,1.934-1.604C76.845,309.259,78.107,309.415,78.107,309.415z"/>
								</g>
								<path style="fill:#ED7864;" d="M74.633,321.854c0.418,0.99,2.593,1.017,4.859,0.061c2.266-0.956,3.765-2.533,3.348-3.522
									c-0.417-0.989-2.593-1.017-4.859-0.061C75.714,319.287,74.215,320.864,74.633,321.854z"/>
								<path style="fill:#ED7864;" d="M45.49,318.348c-0.331,1.532,2.245,3.387,5.752,4.144c3.508,0.757,6.619,0.129,6.95-1.403
									c0.331-1.531-2.245-3.387-5.752-4.144C48.932,316.189,45.82,316.817,45.49,318.348z"/>
							</g>
						</g>
						<g>
							<path style="fill:#131D42;" d="M21.572,306.127c0.85,0.848,1.985,1.38,3.167,1.6c-0.783,1.154-1.437,2.354-1.827,3.689
								c-0.135,0.445-0.226,0.915-0.275,1.382c-0.248,2.11,0.312,4.327,1.928,5.651c1.975,1.619,5.579,1.025,6.35-1.405
								c-0.248,1.366,1.223,2.63,2.614,2.469c1.378-0.16,2.466-1.365,2.885-2.687c0.42-1.323,0.297-2.759,0.137-4.137
								c-0.443-3.461-1.179-6.887-1.927-10.297c0.362,1.825,3.234,1.946,4.448,0.535c1.213-1.411,1.213-3.46,1.157-5.308
								c1.52,1.907,4.17,2.816,6.542,2.258c2.357-0.571,4.309-2.599,4.804-4.98c1.189,2.549,4.052,4.228,6.856,4.002
								c2.898-0.233,5.816-1.826,6.986-4.557c1.209,2.629,2.705,5.823,5.915,6.369c2.385,0.406,5.805-1.343,6.126-3.925
								c0.882,4.083,6.744,8.136,9.902,3.46c0.996-1.475,0.821-3.633-0.401-4.928c1.618,0.461,3.315,0.646,4.994,0.545
								c1.03-0.062,2.197-0.325,2.693-1.23c0.644-1.174-0.296-2.654-1.469-3.3c-1.173-0.646-2.563-0.812-3.739-1.451
								c1.581-0.251,3.195-0.512,4.613-1.255c2.327-1.219,4.13-4.393,1.521-6.234c-2.377-1.677-6.913-0.74-9.356,0.255
								c0.971-1.153,1.778-2.443,2.392-3.82c0.503-1.129,0.877-2.419,0.475-3.588c-0.664-1.93-3.077-2.61-5.115-2.506
								c-2.628,0.134-5.207,1.112-7.264,2.753c0.829-1.81,1.252-3.951,0.462-5.779c-0.983-2.274-3.63-3.457-6.108-3.454
								c-2.533,0.003-5.465,0.972-7.638,2.089c0.205-1.31,0.287-2.634,0.24-3.959c-0.036-1.035-0.208-2.186-1.001-2.856
								c-1.365-1.16-3.45-0.147-4.806,1.036c-1.989,1.722-3.687,3.787-5.031,6.064c-1.161-2.747-2.989-5.206-5.306-7.08
								c-1.046-0.848-2.326-1.621-3.673-1.436c-1.793,0.233-2.967,2.161-3.012,3.975c-0.046,1.814,0.757,3.522,1.54,5.161
								c-2.133-1.299-5.065-1.092-6.981,0.484c-1.256,1.021-2.009,2.58-2.169,4.178c-3.745-1.093-8.555,0.266-10.892,2.968
								c-3.162,3.663-2.897,9.791,0.584,13.149c-1.409,2.534-2.841,5.141-3.37,7.987C18.999,300.862,19.522,304.078,21.572,306.127z
								"/>
							<path style="fill:#131A70;" d="M93.177,291.333c-1.173-0.646-2.563-0.812-3.739-1.451c1.581-0.251,3.195-0.512,4.613-1.255
								c2.327-1.219,4.13-4.393,1.521-6.234c-2.377-1.677-6.913-0.74-9.356,0.255c0.971-1.153,1.778-2.443,2.392-3.82
								c0.503-1.129,0.877-2.419,0.475-3.588c-0.664-1.929-3.077-2.61-5.115-2.506c-2.628,0.135-5.207,1.112-7.263,2.753
								c0.829-1.81,1.252-3.951,0.462-5.779c-0.983-2.274-3.63-3.457-6.108-3.454c-2.533,0.003-5.465,0.972-7.637,2.089
								c0.205-1.31,0.287-2.634,0.24-3.959c-0.036-1.035-0.208-2.187-1.001-2.856c-1.365-1.16-3.45-0.147-4.806,1.036
								c-1.99,1.722-3.687,3.787-5.031,6.064c-1.161-2.748-2.989-5.206-5.306-7.081c-1.046-0.848-2.326-1.621-3.673-1.436
								c-1.793,0.233-2.967,2.161-3.012,3.975c-0.046,1.814,0.757,3.522,1.54,5.161c-2.133-1.299-5.065-1.092-6.981,0.484
								c-1.256,1.021-2.009,2.58-2.169,4.178c-3.745-1.093-8.555,0.266-10.892,2.968c-3.162,3.663-2.897,9.79,0.584,13.149
								c-1.409,2.534-2.841,5.141-3.37,7.987c-0.544,2.848-0.02,6.065,2.029,8.114c0.85,0.848,1.985,1.38,3.167,1.6
								c-0.783,1.154-1.437,2.354-1.827,3.689c-0.135,0.445-0.226,0.915-0.275,1.382c-0.248,2.11,0.312,4.327,1.928,5.651
								c0.273,0.224,0.581,0.396,0.904,0.536c0.698-0.377,1.363-0.794,1.94-1.305c4.099-3.631,3.354-10.652,1.866-15.351
								c0.465,0.852,1.168,1.571,2.009,2.055c1.866-0.962,2.174-3.462,2.177-5.561c0.005-3.328-0.162-6.656-0.5-9.967
								c1.039,2.028,4.185,2.008,5.917,0.526c1.732-1.481,2.406-3.823,2.995-6.024c0.963,2.213,3.762,3.196,6.119,2.678
								c2.357-0.519,4.29-2.217,5.78-4.115c-0.627,2.718,2.694,5.002,5.439,4.508c2.745-0.494,4.821-2.683,6.69-4.754
								c-0.607,3.036,2.249,6.01,5.336,6.253c3.087,0.242,6.027-1.666,7.853-4.167c-0.393,2.653,0.113,5.593,2.005,7.494
								c1.892,1.901,5.361,2.279,7.206,0.332c-1.231,0.763-1.427,2.363-0.988,3.797c1.513,0.391,3.082,0.57,4.643,0.477
								c1.03-0.062,2.197-0.325,2.693-1.23C95.29,293.459,94.35,291.979,93.177,291.333z"/>
							<g>
								<path style="fill:#172D8A;" d="M92.294,290.938c-0.411-0.154-0.833-0.288-1.253-0.422
									C91.444,290.694,91.862,290.836,92.294,290.938z"/>
								<path style="fill:#172D8A;" d="M89.1,289.222c0.224,0.223,0.478,0.403,0.729,0.586c1.454-0.235,2.92-0.5,4.222-1.182
									c2.327-1.219,4.13-4.393,1.521-6.234c-2.377-1.677-6.913-0.74-9.356,0.255c0.971-1.153,1.778-2.443,2.392-3.82
									c0.503-1.129,0.877-2.419,0.475-3.588c-0.664-1.929-3.077-2.61-5.115-2.506c-2.628,0.135-5.207,1.112-7.263,2.753
									c0.829-1.81,1.252-3.951,0.462-5.779c-0.983-2.274-3.63-3.457-6.108-3.454c-2.533,0.003-5.465,0.972-7.637,2.089
									c0.205-1.31,0.287-2.634,0.24-3.959c-0.036-1.035-0.208-2.187-1.001-2.856c-1.365-1.16-3.45-0.147-4.806,1.036
									c-1.99,1.722-3.687,3.787-5.031,6.064c-1.161-2.748-2.989-5.206-5.306-7.081c-1.046-0.848-2.326-1.621-3.673-1.436
									c-1.793,0.233-2.967,2.161-3.012,3.975c-0.046,1.814,0.757,3.522,1.54,5.161c-2.133-1.299-5.065-1.092-6.981,0.484
									c-1.256,1.021-2.009,2.58-2.169,4.178c-3.745-1.093-8.555,0.266-10.892,2.968c-3.162,3.663-2.897,9.79,0.584,13.149
									c-1.409,2.534-2.841,5.141-3.37,7.987c-0.544,2.848-0.02,6.065,2.029,8.114c0.85,0.848,1.985,1.38,3.167,1.6
									c-0.783,1.154-1.437,2.354-1.827,3.689c-0.135,0.445-0.226,0.915-0.275,1.382c-0.096,0.818-0.029,1.639,0.132,2.431
									c5.334-3.773,6.324-10.49,1.237-15.218c2.166-0.605,3.628-2.769,3.983-4.989c0.354-2.22-0.211-4.485-0.96-6.604
									c2.824-1.828,4.715-5.025,4.956-8.38c2.176,1.439,5.108,1.65,7.467,0.539c2.36-1.111,4.064-3.506,4.341-6.1
									c1.966,1.608,4.256,2.998,6.789,3.182c2.533,0.183,5.309-1.151,6.114-3.56c0.297,2.744,3.5,4.39,6.237,4.031
									c2.737-0.359,5.057-2.116,7.234-3.811c0.071,2.197,1.61,4.273,3.691,4.981c2.082,0.707,4.567-0.001,5.962-1.7
									c-0.722,2.747,2.061,5.764,4.856,5.267c-1.4,0.96-0.849,3.353,0.589,4.254c1.438,0.902,3.271,0.759,4.958,0.571
									C89.534,287.809,89.006,288.528,89.1,289.222z"/>
							</g>
						</g>
						<g>
							<path style="fill:#ED7864;" d="M39.809,329.592c-4.93-0.186-8.627-2.954-10.642-5.317c-0.453-0.533-0.821-1.045-1.099-1.502
								c-1.507-2.488-2.272-11.298,1.257-13.497c2.474-1.539,4.402,0.468,5.334,1.811l0,0.005c0.398,0.57,0.615,1.02,0.615,1.02
								L39.809,329.592z"/>
							<path style="fill:#D8684E;" d="M39.809,329.592c-4.93-0.186-8.627-2.954-10.642-5.317c-0.176-0.242-0.33-0.474-0.463-0.694
								c-1.507-2.488-2.272-11.298,1.258-13.495c2.003-1.249,3.649-0.169,4.698,1l0,0.005c0.398,0.57,0.615,1.02,0.615,1.02
								L39.809,329.592z"/>
							<path style="fill:#ED7864;" d="M28.473,316.334c-0.152,0.713-0.008,1.444,0.253,2.131c1.108,2.922,4.159,5.061,7.077,7.044
								c-0.913-1.402-1.293-3.01-1.183-4.598c0.038-0.552,0.134-1.104,0.117-1.656C34.668,317.034,29.372,312.117,28.473,316.334z"
								/>
							<g>
								<path style="fill:#AC4732;" d="M37.26,326.294c0,0-0.057-0.029-0.164-0.084c-0.105-0.058-0.274-0.133-0.468-0.254
									c-0.39-0.238-0.93-0.622-1.449-1.205c-0.516-0.58-0.995-1.364-1.245-2.305c-0.23-0.938-0.236-2.043,0.229-3.126
									c0.048-0.137,0.119-0.268,0.19-0.397l0.053-0.097c0.013-0.024,0.005-0.009,0.005-0.009l0.001,0l0.003-0.001l0.001,0
									c0,0,0.003,0.005-0.008-0.015l-0.05-0.083l-0.102-0.164c-0.07-0.109-0.138-0.217-0.211-0.322
									c-0.285-0.423-0.591-0.819-0.904-1.185c-0.313-0.366-0.635-0.703-0.953-1.008c-0.32-0.304-0.627-0.589-0.93-0.797
									c-0.302-0.21-0.63-0.341-0.933-0.367c-0.304-0.022-0.587,0.059-0.775,0.161c-0.191,0.105-0.294,0.235-0.334,0.329
									c-0.044,0.095-0.039,0.152-0.044,0.151c0,0-0.017-0.053,0.002-0.158c0.015-0.104,0.087-0.263,0.275-0.415
									c0.187-0.147,0.483-0.291,0.883-0.318c0.399-0.02,0.835,0.096,1.229,0.297c0.397,0.202,0.756,0.461,1.135,0.745
									c0.377,0.288,0.76,0.612,1.13,0.977c0.37,0.365,0.729,0.767,1.058,1.207c0.083,0.109,0.162,0.222,0.241,0.336l0.116,0.173
									l0.154,0.245l0.107,0.172c-0.023,0.06-0.061,0.12-0.09,0.18l-0.134,0.257c-0.06,0.112-0.121,0.225-0.163,0.345
									c-0.404,0.939-0.463,1.909-0.345,2.77c0.138,0.862,0.461,1.62,0.841,2.216c0.381,0.597,0.807,1.035,1.125,1.322
									c0.157,0.145,0.299,0.243,0.387,0.318C37.213,326.255,37.26,326.294,37.26,326.294z"/>
							</g>
						</g>
					</g>
				</g>
			</g>
			<g>
				<g>
					<g>
						<g>
							<path style="fill:#FF7D6F;" d="M466.16,471.487l-12.542-9.507l-17.222,15.978c0,0-42.735-0.168-50.185,3.185
								c-11.61,5.225-60.5,134.064-60.5,134.064h20.419l56.916-95.911c0,0,56.142,4.499,67.078-0.725
								C481.062,513.346,466.16,471.487,466.16,471.487z"/>
							<g>
								<path style="fill:#FF7D6F;" d="M354.685,644.185l-8.632,1.901l-2.271-13.419c0,0-5.253,15.164-7.874,16.261
									c-2.621,1.097-28.299,3.51-38.06,1.931c-9.967-1.62-9.748-4.52-9.748-4.52c0.853-2.108,8.003-7.723,15.009-10.523
									c1.417-0.569,3.246-1.814,5.263-3.449c7.905-6.395,18.694-18.677,18.694-18.677l18.745-1.289
									C354.245,621.513,354.685,644.185,354.685,644.185z"/>
								<path style="fill:#3547C7;" d="M354.685,644.186l-8.632,1.896l-2.271-13.415c0,0-5.253,15.164-7.874,16.261
									c-2.621,1.097-28.299,3.51-38.06,1.931c-9.967-1.62-9.748-4.52-9.748-4.52c0.853-2.108,8.003-7.723,15.009-10.523
									c0,0,4.018,9.417,10.928,8.739c6.923-0.678,23.499-14.491,25.534-20.765c2.049-6.275,8.356-8.582,8.356-8.582
									C356.36,624.32,354.685,644.186,354.685,644.186z"/>
							</g>
						</g>
						<path style="fill:#CD2B7B;" d="M477.302,403.711c5.206-15.372,7.75-29.878,7.75-29.878s-19.167-13.285-24.703-16.607
							c-5.535-3.321-17.645,4.834-22.016,3.638c-4.372-1.196-10.395,0.575-10.395,0.575s-7.365,72.213-7.212,74.017
							c0.065,0.765,1.484,2.192,4.817,3.323l-2.435,1.65l-8.504,37.859c0,0,72.019,26.719,72.019,23.25
							c0-3.469-9.318-97.829-9.318-97.829L477.302,403.711z"/>
						<path style="fill:#FFA07F;" d="M427.937,361.44c0,0,4.479,19.008,15.617,15.267c7.824-2.628,23.911-14.87,23.911-14.87
							l-7.117-4.611l-22.682,3.221C437.667,360.448,432.658,360.195,427.937,361.44z"/>
						<path style="fill:#FFFFFF;" d="M441.74,377.03c0,0,9.145,11.485,17.452,5.397c8.308-6.089,8.274-20.59,8.274-20.59
							L441.74,377.03z"/>
						<path style="fill:#FFFFFF;" d="M427.937,361.44c0,0-3.983,19.88,2.29,20.434c6.273,0.554,11.512-4.843,11.512-4.843
							S432.88,376.287,427.937,361.44z"/>
						<path style="fill:#CD2B7B;" d="M427.937,361.44c0,0-17.998,9.191-20.873,19.191c-2.875,10-6.037,41.176-6.037,41.176
							l-46.719,18.338v12.47h71.19V396.5L427.937,361.44z"/>
						<g>
							<g>
								<rect x="337.056" y="467.609" style="fill:#131D42;" width="14.146" height="181.525"/>
								<path style="fill:#131D42;" d="M388.955,656.866h-89.651l0,0c0-7.555,6.124-13.678,13.678-13.678h62.295
									C382.831,643.188,388.955,649.312,388.955,656.866L388.955,656.866z"/>
							</g>
							<rect x="149.551" y="464.284" style="fill:#FACC07;" width="257.04" height="12.341"/>
						</g>
						<g>
							<g>
								<polygon style="fill:#131A70;" points="504.023,534.666 526.053,426.594 515.6,426.594 491.235,536.508 								"/>
								<path style="fill:#131D42;" d="M533.79,408.633c-4.346-4.57-35.251-4.51-64.695-3.338v25.417h68.564
									C537.659,430.711,542.37,417.655,533.79,408.633z"/>
							</g>
						</g>
						<g>
							<g>
								<g>
									<polygon style="fill:#131D42;" points="406.591,543.088 386.673,656.866 393.626,656.866 421.491,548.398 									"/>
									<polygon style="fill:#131D42;" points="506.135,543.088 526.053,656.866 519.1,656.866 491.235,548.398 									"/>
								</g>
							</g>
							<rect x="397.883" y="619.807" style="fill:#131D42;" width="117.717" height="7.23"/>
						</g>
						<path style="fill:#131A70;" d="M389.756,531.355c0,0,112.105-9.023,120.685,0c8.581,9.023,3.869,22.079,3.869,22.079H386.673
							L389.756,531.355z"/>
						<g>
							<path style="fill:#FFA07F;" d="M481.831,491.721l-12.542-9.507l-17.222,15.978c0,0-42.735-0.168-50.185,3.185
								c-11.61,5.225-60.5,134.064-60.5,134.064H361.8l56.916-95.911c0,0,56.141,4.499,67.078-0.725
								C496.732,533.58,481.831,491.721,481.831,491.721z"/>
							<g>
								<path style="fill:#FFA07F;" d="M370.356,664.42l-8.632,1.901l-2.271-13.419c0,0-5.253,15.164-7.874,16.261
									c-2.621,1.097-28.299,3.51-38.06,1.931c-9.966-1.62-9.748-4.52-9.748-4.52c0.853-2.108,8.003-7.723,15.009-10.523
									c1.417-0.569,3.246-1.814,5.263-3.449c7.905-6.395,18.694-18.677,18.694-18.677l18.745-1.289
									C369.915,641.747,370.356,664.42,370.356,664.42z"/>
								<path style="fill:#3547C7;" d="M370.356,664.42l-8.632,1.896l-2.271-13.415c0,0-5.253,15.164-7.874,16.261
									c-2.621,1.097-28.299,3.51-38.06,1.931c-9.966-1.62-9.748-4.52-9.748-4.52c0.853-2.108,8.003-7.723,15.009-10.523
									c0,0,4.018,9.417,10.928,8.739c6.923-0.679,23.499-14.491,25.534-20.765c2.049-6.275,8.356-8.582,8.356-8.582
									C372.031,644.555,370.356,664.42,370.356,664.42z"/>
							</g>
						</g>
						<path style="fill:#FACC07;" d="M414.604,478.289c0,0-37.567-1.923-45.457,11.974c-7.89,13.898-25.421,50.127-25.421,50.127
							l43.302,21.893c0,0,12.543-11.889,10.855-8.849c-1.688,3.041,6.63,19.174,6.63,19.174l14.204-33.078
							c0,0,53.286,9.742,67.078-0.725c13.792-10.468-3.964-50.036-3.964-50.036L414.604,478.289z"/>
						<g>
							<polygon style="fill:#131D42;" points="430.625,544.752 417.848,541.422 433.053,483.071 504.68,482.923 514.913,541.42 
								502.151,542.318 493.683,496.15 443.263,496.254 							"/>
						</g>
						<g>
							<g>
								<g>
									<polygon style="fill:#131D42;" points="277.966,464.284 365.87,464.284 351.19,404.079 263.286,404.079 									"/>
									<path style="fill:#FFF5F2;" d="M302.957,434.851c3.078,0,5.574-2.495,5.574-5.574c0-1.303-0.465-2.486-1.215-3.435
										c0.746-0.208,1.517-0.356,2.329-0.356c4.803,0,8.696,3.893,8.696,8.696c0,4.803-3.893,8.696-8.696,8.696
										c-4.703,0-8.51-3.741-8.667-8.406C301.596,434.708,302.258,434.851,302.957,434.851z"/>
								</g>
							</g>
							
								<rect x="277.966" y="455.804" transform="matrix(-1 -1.224647e-16 1.224647e-16 -1 659.0833 920.088)" style="fill:#131D42;" width="103.151" height="8.481"/>
						</g>
						<path style="fill:#CD2B7B;" d="M477.909,370.092c0,0-17.971,12.669-19.805,21.188c-1.834,8.52-8.027,42.901-8.027,42.901
							s-38.766-1.195-45.995,0c-7.228,1.195-20.065,5.963-20.065,5.963v18.705c0,0,11.052,8.291,21.302,8.759
							c10.25,0.469,55.696-4.359,63.776-9.86c8.08-5.501,24.952-43.645,24.952-51.347
							C494.047,398.7,490.411,370.008,477.909,370.092z"/>
						<path style="fill:#FFA07F;" d="M384.017,457.383l-2.9-1.579h-17.315l-2.002-8.21c0,0,12.558-4.672,14.148-4.716
							c1.589-0.044,8.069-1.022,8.069-1.022V457.383z"/>
						<polygon style="fill:#FFF5F2;" points="382.55,435.866 384.017,461.539 390.619,464.284 391.506,434.182 						"/>
						<path style="fill:#AE115D;" d="M411.002,407.403c-1.655,11.112,2.883,22.946,11.544,30.102
							c-7.364-7.383-10.206-18.952-7.103-28.907c1.148-3.683,3.024-7.099,4.297-10.741c0.768-2.199,2.146-6.168,1.11-8.457
							c-1.532-3.386-3.256,0.471-4.077,2.039C414.142,396.463,411.843,401.755,411.002,407.403z"/>
						<path style="fill:#FFA07F;" d="M460.349,357.226c0,0-14.058,5.658-16.404,5.127c-2.346-0.518-5.612-1.489-5.612-1.489
							c0.389-0.635,2.817-6.366,2.42-8.086c-0.917-3.965-3.137-9.365-3.137-9.365l12.847-6.444c0,0,1.074,3.779,2.399,7.753
							C454.201,348.749,459.41,356.709,460.349,357.226z"/>
						<path style="fill:#FF7D6F;" d="M452.858,344.718c-3.331,3.26-7.441,7.141-8.859,7.847c-1.158,0.573-2.323,0.479-3.241,0.213
							c-0.925-3.967-3.144-9.36-3.144-9.36l12.847-6.445C450.46,336.973,451.54,340.755,452.858,344.718z"/>
						<g>
							
								<ellipse transform="matrix(0.9818 -0.1897 0.1897 0.9818 -45.7447 95.4778)" style="fill:#131D42;" cx="475.848" cy="286.683" rx="17.46" ry="17.46"/>
							<path style="fill:#131D42;" d="M409.696,299.17c-0.516,2.197-0.774,4.523-0.724,7.039c0.077,5.317,0.755,10.493,2.352,15.156
								c2.115,6.084,5.81,11.271,11.918,14.816c6.158,3.541,13.983,3.444,20.847,3.188c7.73-0.298,15.605-2.531,21.787-7.431
								c2.823-2.251,5.293-5.09,6.74-8.492c1.82-4.31,1.887-9.236,1.376-13.918c0.429-0.62,0.741-1.35,0.988-2.144
								c0.524-1.71,0.622-3.721,0.379-5.462c-0.057-0.418-0.118-0.821-0.194-1.228c-0.137-0.809-0.323-1.615-0.529-2.409
								c-0.221-0.798-0.464-1.57-0.738-2.349c-0.13-0.388-0.278-0.764-0.441-1.144c-0.149-0.376-0.312-0.756-0.476-1.136
								c-0.121-0.289-0.262-0.566-0.399-0.859c-0.574-1.193-1.224-2.341-1.947-3.458c-0.278-0.441-0.586-0.889-0.886-1.303
								c-0.023-0.038-0.046-0.076-0.072-0.099c-0.285-0.41-0.574-0.805-0.886-1.174c-0.107-0.156-0.217-0.296-0.331-0.422
								c-0.346-0.426-0.696-0.836-1.049-1.231c-0.023-0.038-0.049-0.061-0.06-0.08c-0.403-0.456-0.825-0.901-1.251-1.33
								c-0.335-0.342-0.658-0.665-1.015-0.981c-0.118-0.11-0.236-0.22-0.369-0.334c-0.445-0.418-0.912-0.809-1.395-1.205
								c-0.467-0.391-0.958-0.756-1.433-1.117c-0.027-0.023-0.057-0.03-0.069-0.049c-0.943-0.688-1.912-1.334-2.927-1.926
								c-0.145-0.068-0.27-0.148-0.395-0.228c-0.327-0.178-0.639-0.353-0.965-0.532c-0.171-0.091-0.342-0.183-0.517-0.259
								c-0.13-0.065-0.258-0.129-0.403-0.197c-0.399-0.213-0.821-0.399-1.243-0.585c-0.525-0.228-1.064-0.459-1.612-0.661
								c-0.087-0.038-0.174-0.076-0.281-0.102c-0.399-0.148-0.814-0.3-1.232-0.437c-0.316-0.095-0.627-0.205-0.962-0.289
								c-2.98-0.874-6.07-1.306-9.19-1.229c-8.175,0.203-16.007,3.496-22.802,8.066c-0.08,0.061-0.156,0.106-0.236,0.167
								c-0.099,0.072-0.198,0.144-0.315,0.228c-1.702,1.449-4.084,6.006-5.957,10.077
								C411.025,295.852,409.696,299.17,409.696,299.17z"/>
							<g>
								<g>
									<path style="fill:#FFA07F;" d="M413.094,320.011c0.379,1.961,0.875,4.023,1.501,6.182c0,0-1.202,10.539-0.151,12.932
										c1.057,2.399,7.802,17.325,15.288,16.594c6.248-0.608,21.704-9.362,27.131-14.67c1.087-1.056,1.77-1.974,1.908-2.666
										c0.829-4.173,3.776-22.598,4.048-24.139c0.736-4.175,3.268-35.874-35.322-27.978c-6.951,1.428-12.535,6.65-14.265,13.529
										C411.978,304.762,411.443,311.458,413.094,320.011z"/>
									<g>
										<path style="fill:#FFFFFF;" d="M443.879,337.663c0,0-11.677-2.104-19.772,5.822c0,0,6.818,6.816,11.902,5.173
											C442.179,346.663,443.879,337.663,443.879,337.663z"/>
									</g>
									<path style="fill:#FFBF90;" d="M414.595,326.193c0,0-1.202,10.539-0.151,12.932c1.057,2.399,7.802,17.325,15.288,16.594
										c6.248-0.608,21.704-9.362,27.131-14.67c-6.595,4.345-24.17,15.415-29.197,13.527
										c-6.231-2.339-12.996-16.418-12.826-17.791c0.171-1.379,0.8-10.38,0.8-10.38s-1.198-2.878-2.545-6.393
										C413.473,321.971,413.969,324.034,414.595,326.193z"/>
								</g>
								<g>
									<path style="fill:#FFBF90;" d="M457.067,337.809c4.827-0.262,8.404-3.035,10.339-5.382
										c0.435-0.529,0.787-1.037,1.052-1.489c1.436-2.462,2.042-11.105-1.451-13.203c-2.449-1.467-4.305,0.53-5.197,1.861v0.005
										c-0.38,0.565-0.586,1.009-0.586,1.009L457.067,337.809z"/>
									<path style="fill:#FFA07F;" d="M457.067,337.809c4.827-0.262,8.404-3.035,10.339-5.382c0.168-0.24,0.316-0.469,0.442-0.687
										c1.436-2.462,2.042-11.106-1.451-13.201c-1.983-1.191-3.578-0.106-4.587,1.056v0.005c-0.38,0.565-0.586,1.009-0.586,1.009
										L457.067,337.809z"/>
									<path style="fill:#FF7D6F;" d="M467.958,324.636c0.16,0.697,0.031,1.415-0.214,2.092c-1.038,2.881-3.993,5.026-6.819,7.016
										c0.871-1.388,1.218-2.97,1.084-4.524c-0.047-0.54-0.15-1.079-0.142-1.62C461.9,325.422,467.008,320.519,467.958,324.636z"
										/>
									<g>
										<path style="fill:#CF4A57;" d="M459.51,334.536c0,0,0.055-0.03,0.16-0.085c0.102-0.059,0.266-0.135,0.454-0.256
											c0.378-0.239,0.901-0.625,1.4-1.204c0.496-0.577,0.953-1.352,1.183-2.278c0.21-0.923,0.198-2.005-0.276-3.059
											c-0.049-0.134-0.121-0.26-0.192-0.386l-0.053-0.094c-0.013-0.024-0.005-0.009-0.005-0.009l-0.001,0l-0.003-0.001h-0.001
											c0,0-0.003,0.005,0.008-0.015l0.048-0.082l0.098-0.163c0.067-0.107,0.132-0.215,0.202-0.319
											c0.273-0.419,0.566-0.812,0.866-1.176c0.301-0.364,0.611-0.699,0.917-1.003c0.309-0.303,0.605-0.587,0.898-0.796
											c0.292-0.211,0.612-0.344,0.908-0.375c0.297-0.026,0.576,0.048,0.762,0.145c0.189,0.1,0.292,0.225,0.333,0.317
											c0.045,0.092,0.04,0.148,0.04,0.148s0.021-0.053,0-0.156c-0.017-0.102-0.09-0.256-0.277-0.402
											c-0.186-0.141-0.478-0.278-0.87-0.297c-0.392-0.013-0.817,0.108-1.199,0.312c-0.386,0.205-0.733,0.464-1.1,0.748
											c-0.364,0.288-0.735,0.612-1.091,0.976c-0.356,0.363-0.702,0.764-1.017,1.2c-0.08,0.109-0.155,0.22-0.231,0.333
											l-0.111,0.171l-0.147,0.242l-0.102,0.17c0.024,0.058,0.061,0.116,0.091,0.175l0.135,0.25
											c0.061,0.109,0.123,0.219,0.165,0.336c0.411,0.914,0.484,1.862,0.383,2.708c-0.122,0.847-0.425,1.595-0.788,2.185
											c-0.364,0.591-0.774,1.027-1.081,1.313c-0.152,0.145-0.289,0.243-0.374,0.318
											C459.556,334.498,459.51,334.536,459.51,334.536z"/>
									</g>
								</g>
							</g>
							<g>
								<path style="fill:#131A70;" d="M409.8,312.328c0,0,5.058-6.438,7.727-3.776c2.669,2.662,1.433,2.905,1.433,2.905
									L409.8,312.328z"/>
								<path style="fill:#131A70;" d="M448.547,314.277c0,0-8.785-10.63-12.576-7.022c-2.213,2.106-0.747,3.612-0.747,3.612
									L448.547,314.277z"/>
								<path style="fill:#161818;" d="M436.424,315.051c0.405,1.128,1.84,2.038,2.847,2.557c0.536-0.586,1.182-0.926,1.872-0.91
									c1.76,0.043,3.132,2.369,3.063,5.196c-0.069,2.827-1.552,5.084-3.312,5.041c-1.76-0.043-3.132-2.369-3.063-5.196
									c0.021-0.875,0.178-1.695,0.438-2.41C436.954,318.116,436.424,315.051,436.424,315.051z"/>
								<path style="fill:#FFF0E7;" d="M447.321,319.112c0,0-1.164,1.731-3.126,2.47c-1.962,0.739-3.978,0.206-3.978,0.206
									s1.164-1.731,3.126-2.47C445.304,318.58,447.321,319.112,447.321,319.112z"/>
								<path style="fill:#161818;" d="M414.795,317.25c0.278,0.773,1.252,1.4,1.951,1.765c0.372-0.346,0.802-0.544,1.259-0.533
									c1.327,0.032,2.361,1.786,2.309,3.916c-0.052,2.131-1.17,3.832-2.496,3.8c-1.327-0.032-2.361-1.786-2.308-3.916
									c0.019-0.805,0.191-1.548,0.469-2.16C415.139,319.217,414.795,317.25,414.795,317.25z"/>
								<path style="fill:#FFF0E7;" d="M413.492,320.359c0,0,0.816,1.158,2.184,1.751c1.368,0.593,2.771,0.396,2.771,0.396
									s-0.816-1.158-2.184-1.751C414.895,320.162,413.492,320.359,413.492,320.359z"/>
								<g>
									<path style="fill:#FF7D6F;" d="M428.514,333.32c0.791-0.267,1.584-0.676,2.412-0.571c-0.872,1.874-2.509,3.377-4.45,4.087
										c-0.15,0.055-0.306,0.106-0.465,0.096c-0.195-0.011-0.372-0.111-0.538-0.214c-1.049-0.65-1.968-1.509-2.687-2.512
										c-0.146-0.203-0.286-0.419-0.338-0.664c-0.171-0.81,0.379-0.62,0.854-0.42c0.55,0.232,1.131,0.393,1.72,0.485
										C426.187,333.789,427.396,333.697,428.514,333.32z"/>
									<path style="fill:#FC5B68;" d="M426.315,336.37c-0.481-0.451-1.023-0.837-1.516-1.277
										c-0.608-0.544-1.174-1.134-1.666-1.786c2.662-1.741,2.701-4.476,2.651-7.578c-0.022-1.4-0.379-2.789-1.029-4.029
										c-0.341-0.651-0.762-1.26-1.251-1.809c-0.248-0.279-0.514-0.543-0.795-0.79c-0.275-0.241-0.56-0.378-0.894-0.525
										c0.156,0.189,0.262,0.405,0.403,0.598c0.369,0.505,0.756,0.975,1.071,1.519c0.315,0.544,0.583,1.115,0.801,1.704
										c0.437,1.178,0.68,2.432,0.694,3.69c0.013,1.233-0.198,2.474-0.677,3.613c-0.547,1.3-1.49,2.58-2.704,3.317
										c-0.011,0.006,1.739,2.129,1.91,2.302c0.444,0.449,0.93,0.857,1.455,1.208c0.515,0.344,1.107,0.752,1.748,0.742
										c0.201-0.003,0.407-0.042,0.573-0.155c-0.108-0.075-0.209-0.16-0.301-0.255c-0.04-0.041-0.079-0.084-0.117-0.127
										C426.557,336.605,426.438,336.485,426.315,336.37z"/>
								</g>
								<path style="fill:#FF7D6F;" d="M418.624,334.178c-0.447,1.11-2.87,1.181-5.412,0.158c-2.542-1.023-4.241-2.752-3.794-3.862
									c0.447-1.11,2.87-1.181,5.412-0.158C417.372,331.339,419.07,333.068,418.624,334.178z"/>
								<path style="fill:#FF7D6F;" d="M451.026,329.735c0.397,1.7-2.438,3.815-6.332,4.723c-3.894,0.908-7.372,0.266-7.768-1.434
									c-0.397-1.7,2.438-3.815,6.332-4.723C447.151,327.392,450.629,328.034,451.026,329.735z"/>
							</g>
							<path style="fill:#131D42;" d="M465.987,317.134c-2.723,1.027-5.146,3.797-5.713,6.651c-1.202-4.742-2.68-9.579-3.271-14.435
								c-3.613-2.955-8.789-5.627-13.397-6.366c-0.361-1.931-1.176-3.688-1.536-5.618c-2.293,2.145-5.104,4.459-7.397,6.603
								c-7.889,1.03-16.129-0.051-23.59-2.816c0.369-6.142,4.423-11.918,10.074-14.353c10.62-4.575,24.206-6.607,33.801-0.154
								C464.554,293.099,468.268,305.798,465.987,317.134z"/>
							<path style="fill:#131A70;" d="M442.386,285.013c-1.98,2.623-3.951,5.28-5.916,7.907c4.405-1.726,8.794-3.457,13.195-5.168
								c-0.011,2.824-0.037,5.644-0.063,8.464c6.172,1.219,11.437,5.037,16.975,7.955c2.638,1.402,5.504,2.602,8.404,3.213
								c0.524-1.71,0.622-3.721,0.379-5.462c-0.057-0.418-0.118-0.821-0.194-1.228c-0.137-0.809-0.323-1.615-0.529-2.409
								c-0.221-0.798-0.464-1.57-0.738-2.349c-0.13-0.388-0.278-0.764-0.441-1.144c-0.149-0.376-0.312-0.756-0.476-1.136
								c-0.121-0.289-0.262-0.566-0.399-0.859c-0.574-1.193-1.224-2.341-1.947-3.458c-0.278-0.441-0.586-0.889-0.886-1.303
								c-0.023-0.038-0.046-0.076-0.072-0.099c-0.285-0.41-0.574-0.805-0.886-1.174c-0.107-0.156-0.217-0.296-0.331-0.422
								c-0.346-0.426-0.696-0.836-1.049-1.231c-0.023-0.038-0.049-0.061-0.06-0.08c-0.403-0.456-0.825-0.901-1.251-1.33
								c-0.335-0.342-0.658-0.665-1.015-0.981c-0.118-0.11-0.236-0.22-0.369-0.334c-0.445-0.418-0.912-0.809-1.395-1.205
								c-0.467-0.391-0.958-0.756-1.433-1.117c-0.027-0.023-0.057-0.03-0.069-0.049c-0.943-0.688-1.927-1.337-2.927-1.926
								c-0.145-0.068-0.27-0.148-0.395-0.228c-0.327-0.178-0.639-0.353-0.965-0.532c-0.171-0.091-0.342-0.183-0.517-0.259
								c-0.13-0.065-0.258-0.129-0.403-0.197c-0.399-0.213-0.821-0.399-1.243-0.585c-0.525-0.228-1.064-0.459-1.612-0.661
								c-0.087-0.038-0.174-0.076-0.281-0.102c-0.399-0.148-0.814-0.3-1.232-0.437c-0.316-0.095-0.627-0.205-0.962-0.289
								c-2.98-0.874-6.07-1.306-9.19-1.229c-8.175,0.203-16.007,3.496-22.802,8.066c-0.08,0.061-0.156,0.106-0.236,0.167
								c-0.099,0.072-0.198,0.144-0.315,0.228c-1.702,1.449-4.084,6.006-5.957,10.077
								C424.373,293.436,438.229,290.597,442.386,285.013z"/>
							<path style="fill:#172D8A;" d="M453.952,286.45c0.463-1.634,0.334-3.456-0.364-5.009c-3.392,0.905-6.784,1.81-10.177,2.715
								c1.583-1.937,2.336-4.52,2.036-7.004c-8.393,3.479-17.54,5.122-26.623,4.823c0.079-0.061,0.159-0.106,0.239-0.166
								c6.822-4.662,14.757-8.027,23.023-8.233c12.736-0.333,24.982,7.866,30.49,19.223
								C466.607,290.081,460.342,287.954,453.952,286.45z"/>
						</g>
					</g>
				</g>
				<path style="fill:#AE115D;" d="M391.506,434.182c0,0,17.318-1.603,29.219,1.275c11.901,2.878,32.436,0.568,32.133-0.86
					c-0.304-1.428,4.182-33.165,8.767-39.438c4.584-6.273,16.171-15.868,16.171-15.868s-11.322,15.13-13.668,22.88
					c-2.346,7.75-8.352,40.04-9.409,39.025c-1.056-1.015-46.749-1.366-52.025-3.404
					C397.418,435.752,391.506,434.182,391.506,434.182z"/>
				<path style="fill:#AE115D;" d="M416.996,467.155c0,0,39.915-3.87,46.581-7.111c6.666-3.241,6.666-3.241,6.666-3.241
					c1.101,3.021-18.478,10.549-33.188,10.352C422.932,466.966,416.996,467.155,416.996,467.155z"/>
			</g>
		</g>
	</g>
	<g>
		<rect x="341.914" y="141.279" style="fill:#FDE4D9;" width="82.592" height="72.268"/>
		<rect x="341.914" y="130.955" style="fill:#131D42;" width="82.592" height="10.324"/>
		<g>
			<rect x="348.367" y="148.376" style="fill:#FACC07;" width="34.844" height="18.497"/>
			<rect x="348.367" y="173.757" style="fill:#CD2B7B;" width="69.688" height="5.807"/>
			<rect x="348.367" y="186.446" style="fill:#CD2B7B;" width="69.688" height="5.807"/>
			<rect x="348.367" y="199.136" style="fill:#CD2B7B;" width="34.844" height="5.807"/>
			<rect x="389.018" y="161.066" style="fill:#CD2B7B;" width="29.036" height="5.807"/>
			<rect x="389.018" y="148.376" style="fill:#6FB1FE;" width="29.036" height="5.807"/>
		</g>
		<polygon style="fill:#E6E7E8;" points="420.567,134.246 419.655,133.334 417.732,135.257 415.809,133.334 414.896,134.246 
			416.819,136.169 414.896,138.093 415.809,139.005 417.732,137.082 419.655,139.005 420.567,138.093 418.644,136.169 		"/>
	</g>
	<g>
		<path style="fill:#FACC07;" d="M101.962,179.564L101.962,179.564c-8.837,0-16-7.163-16-16v-16h32v16
			C117.962,172.4,110.799,179.564,101.962,179.564z"/>
		<path style="fill:#CD2B7B;" d="M101.962,175.564c-6.617,0-12-5.383-12-12v-8h24v8
			C113.962,170.181,108.579,175.564,101.962,175.564z"/>
		<path style="fill:#FACC07;" d="M101.962,179.564L101.962,179.564c-8.837,0-16,7.163-16,16v16h32v-16
			C117.962,186.727,110.799,179.564,101.962,179.564z"/>
		<rect x="89.962" y="195.564" style="fill:#CD2B7B;" width="24" height="8"/>
		<rect x="99.962" y="173.564" style="fill:#CD2B7B;" width="4" height="22"/>
		<rect x="85.962" y="147.564" style="fill:#131D42;" width="32" height="4"/>
		<rect x="85.962" y="207.564" style="fill:#131D42;" width="32" height="4"/>
		<g>
			<g>
				<rect x="121.962" y="155.563" style="fill:#6FB1FE;" width="4" height="24"/>
			</g>
			<g>
				<polygon style="fill:#6FB1FE;" points="123.962,182.391 116.548,174.977 119.376,172.149 123.962,176.735 128.548,172.149 
					131.376,174.977 				"/>
			</g>
		</g>
		<g>
			<g>
				<rect x="77.962" y="179.563" style="fill:#6FB1FE;" width="4" height="24"/>
			</g>
			<g>
				<polygon style="fill:#6FB1FE;" points="84.548,186.977 79.962,182.391 75.376,186.977 72.548,184.149 79.962,176.735 
					87.376,184.149 				"/>
			</g>
		</g>
	</g>
</g>
</svg>
